<svg width="126" height="26" viewBox="0 0 126 26" fill="none" xmlns="http://www.w3.org/2000/svg">
<path d="M48.3059 23.0062H51.5998L50.7032 17.0322C50.4818 14.8872 49.6727 13.5827 48.2239 13.0478L47.4613 12.7667L48.2239 12.4856C50.1045 11.7924 51.1378 10.2532 51.1378 8.15178C51.1378 4.96967 48.6339 2.99381 44.6048 2.99381H34.8462V23.0062H38.1701V14.7289H46.1164C46.8326 14.7289 47.1852 15.0536 47.259 15.7823L48.3032 23.0035L48.3059 23.0062ZM44.1428 12.0516H38.1728V5.7611H44.2002C46.428 5.7611 47.7565 6.92642 47.7565 8.87772C47.7565 10.829 46.4389 12.0516 44.1401 12.0516H44.1428Z" fill="black"/>
<path d="M94.6386 8.45471H90.1694C87.8732 8.45471 86.6596 9.6364 86.6596 11.8715V23.0089H89.7812V10.99H94.6359V8.45471H94.6386Z" fill="black"/>
<path d="M108.221 10.1249C107.013 8.72762 105.195 7.98803 102.965 7.98803C98.5557 7.98803 95.7047 10.9354 95.7047 15.4957C95.7047 20.0561 98.553 23.0035 102.965 23.0035C106.234 23.0035 108.787 21.3169 109.506 18.697H106.404C106.029 19.5921 104.917 20.6128 102.965 20.6128C100.554 20.6128 99.045 19.1145 98.8263 16.5055L98.799 16.1808H109.708C110.015 13.7355 109.487 11.585 108.219 10.1222L108.221 10.1249ZM98.8619 14.2595L98.9165 13.9129C99.2801 11.6123 100.723 10.2914 102.877 10.2914C105.146 10.2914 106.633 11.7296 106.666 13.9538L106.671 14.2595H98.8619Z" fill="black"/>
<path d="M119.043 7.99076C114.702 7.99076 111.783 11.0091 111.783 15.4985C111.783 19.9878 114.713 23.0062 119.071 23.0062C122.777 23.0062 125.486 20.7847 126 17.3352H122.897C122.501 19.1964 120.959 20.4409 119.041 20.4409C116.616 20.4409 114.989 18.4541 114.989 15.4957C114.989 12.5374 116.58 10.5234 119.041 10.5234C120.899 10.5234 122.384 11.7678 122.755 13.6291H125.85C125.297 10.0949 122.758 7.98803 119.041 7.98803L119.043 7.99076Z" fill="black"/>
<path d="M58.6221 23.0062C60.6996 23.0062 62.1729 22.1629 63.0066 20.5009L63.2335 20.0479V23.0062H66.347V8.45471H63.2253V15.4712C63.2253 18.5496 61.8531 20.3863 59.5515 20.3863C57.6736 20.3863 56.7223 19.1718 56.7223 16.7757V8.45471H53.6007V17.4743C53.6007 20.9403 55.4786 23.0089 58.6221 23.0089V23.0062Z" fill="black"/>
<path d="M77.7538 7.99076C75.8623 7.99076 74.3151 8.71124 73.2846 10.0785L72.7433 10.7935V2.99381H69.6217V23.0062H72.7488V20.1652L72.9484 20.4736C74.0172 22.1302 75.6791 23.0062 77.7538 23.0062C81.5971 23.0062 84.0819 20.0588 84.0819 15.4985C84.0819 10.9382 81.5971 7.99076 77.7538 7.99076ZM76.8244 20.4436C74.3151 20.4436 72.6285 18.4568 72.6285 15.4985C72.6285 12.5401 74.3151 10.5261 76.8244 10.5261C79.3338 10.5261 80.9056 12.4774 80.9056 15.4985C80.9056 18.5196 79.3037 20.4436 76.8244 20.4436Z" fill="black"/>
<path d="M12.6147 20.6892L3.31535 20.5036C2.97093 20.4845 2.65931 20.2908 2.48436 19.9933L0.136294 15.916C-0.0331828 15.6213 -0.0441168 15.2665 0.100758 14.9636L2.84245 9.27616C2.91626 9.12333 3.08847 9.04146 3.25521 9.08513L4.04246 9.28162C4.2092 9.32529 4.31854 9.47812 4.31307 9.64732L2.34496 15.3839C2.32035 15.7959 2.55544 16.1835 2.92992 16.3609L14.2493 18.9344L12.6147 20.6919V20.6892Z" fill="black"/>
<path d="M6.37413 16.1016L1.883 7.96893C1.72719 7.66054 1.73812 7.29485 1.91033 6.99738L4.27754 2.92831C4.44701 2.63357 4.75043 2.44799 5.08665 2.4207L11.3928 1.94857C11.5623 1.93765 11.7208 2.04409 11.7646 2.20783L11.986 2.98562C12.0297 3.14937 11.9559 3.32403 11.8028 3.40317L5.84109 4.56849C5.47207 4.75407 5.25339 5.14979 5.2862 5.56188L8.714 16.6365L6.37413 16.1016Z" fill="black"/>
<path d="M7.23518 8.41104L12.0461 0.461215C12.2347 0.174661 12.56 0 12.9044 0L17.617 0.0109163C17.9587 0.0109163 18.2703 0.18012 18.4616 0.455757L22.0234 5.67104C22.119 5.81022 22.1026 6.00126 21.9824 6.12134L21.4193 6.70263C21.299 6.82271 21.1104 6.84455 20.9682 6.75449L16.9746 2.18327C16.6275 1.95675 16.1764 1.96494 15.8347 2.19964L7.94315 10.7007L7.23791 8.40831L7.23518 8.41104Z" fill="black"/>
<path d="M14.3368 5.3108L23.6361 5.49638C23.9806 5.51548 24.2922 5.70925 24.4671 6.00672L26.8152 10.0867C26.9847 10.3814 26.9956 10.7362 26.8507 11.0392L24.109 16.7266C24.0352 16.8794 23.863 16.9613 23.6963 16.9176L22.909 16.7211C22.7423 16.6774 22.6329 16.5246 22.6384 16.3554L24.6065 10.6189C24.6311 10.2068 24.396 9.81925 24.0216 9.64186L12.7022 7.06833L14.3368 5.3108Z" fill="black"/>
<path d="M20.5746 9.90112L25.0658 18.0338C25.2216 18.3422 25.2106 18.7079 25.0384 19.0054L22.6712 23.0744C22.5017 23.3692 22.1983 23.5547 21.8621 23.582L15.5559 24.0542C15.3865 24.0651 15.2279 23.9586 15.1842 23.7949L14.9628 23.0171C14.919 22.8534 14.9928 22.6787 15.1459 22.5996L21.1077 21.4342C21.4767 21.2487 21.6954 20.8529 21.6626 20.4409L18.2348 9.36622L20.5746 9.90112Z" fill="black"/>
<path d="M19.7136 17.589L14.9026 25.5388C14.714 25.8253 14.3887 26 14.0443 26L9.33177 25.9891C8.99008 25.9891 8.67846 25.8199 8.48712 25.5442L4.92537 20.329C4.8297 20.1898 4.8461 19.9987 4.96638 19.8787L5.52948 19.2974C5.64975 19.1773 5.83836 19.1555 5.9805 19.2455L9.97414 23.8167C10.3213 24.0432 10.7723 24.0351 11.114 23.8004L19.0056 15.2993L19.7108 17.5917L19.7136 17.589Z" fill="black"/>
</svg>
