<svg width="64" height="29" viewBox="0 0 64 29" fill="none" xmlns="http://www.w3.org/2000/svg">
<path d="M31.6367 0C45.3858 7.11507e-05 47.0635 4.58783 63.2725 4.58789V24.4121C47.0631 24.4122 45.3854 28.9999 31.6367 29C17.8877 29 16.2098 24.4121 0 24.4121V4.58789C16.2098 4.58789 17.8877 0 31.6367 0ZM25.0439 10.1113C24.0117 10.1113 22.9775 10.5673 22.2031 11.3682L21.9863 11.5918V10.3799H19.0596C19.0596 10.3799 18.9488 10.3858 19.0439 10.4521C19.2049 10.5623 19.4179 10.8403 19.418 11.5215V11.6152C19.418 11.6152 19.423 23.1548 19.4248 23.1748C19.4248 23.1748 20.4626 23.5916 22.5361 23.8389C22.5755 23.8447 22.6487 23.8297 22.5518 23.7646C22.4067 23.6634 22.2194 23.4265 22.1836 22.873L22.1797 19.0645L22.3984 19.2988C23.0528 20.0092 23.9054 20.3554 25.0039 20.3555C26.6185 20.3555 27.6262 19.4741 28.1855 18.7324H28.1846C28.9031 17.7907 29.3154 16.521 29.3154 15.251C29.3154 13.833 28.8889 12.5326 28.1221 11.5908C27.3407 10.6363 26.2483 10.1114 25.0439 10.1113ZM31.0449 8.73926V10.3994H30.0088L29.9893 12.248H31.0439V16.8828C31.0439 18.9899 32.2602 20.3564 34.1475 20.3564C36.5305 20.3563 36.7624 18.3101 36.7783 17.7109C36.7821 17.6138 36.7313 17.6015 36.6562 17.6699C36.3948 17.9024 35.7386 18.3983 34.9414 18.3984C33.995 18.3984 33.8047 17.7458 33.8047 16.6924V12.248H34.7061C36.4336 12.248 36.4033 10.377 36.4033 10.377H33.8047V7.62988L31.0449 8.73926ZM42.2441 10.1094C39.4432 10.1094 37.1653 12.3992 37.165 15.2207C37.165 18.0424 39.4431 20.3359 42.2441 20.3359C45.0414 20.3357 47.3193 18.0386 47.3193 15.2207C47.3191 12.403 45.0448 10.1096 42.2441 10.1094ZM54.1191 10.1104C52.6726 10.1104 51.7098 10.8216 51.1562 11.4189L50.9385 11.6533V10.377H48.0078C48.0078 10.377 47.897 10.3844 47.9922 10.4512C48.1554 10.5613 48.3681 10.8378 48.3682 11.5195L48.3721 11.5127C48.3738 11.5468 48.374 11.5827 48.374 11.6133V14.7129H48.3721V20.0918L51.4766 20.0898C51.4841 20.0893 51.578 20.0813 51.4883 20.0176C51.3503 19.9258 51.1797 19.7146 51.1279 19.2441V15.1768C51.128 13.4237 52.2932 12.2493 53.3789 12.249C54.1533 12.249 54.456 12.7033 54.4561 13.8779V18.832C54.4561 18.8574 54.4621 18.877 54.4639 18.9023V20.0918L57.5586 20.0938C57.5644 20.0934 57.6629 20.0858 57.5742 20.0215C57.4379 19.9275 57.2695 19.7199 57.2178 19.2598V13.6104C57.2177 12.4612 56.9512 11.5802 56.4277 10.9922C55.9082 10.4059 55.1298 10.1104 54.1191 10.1104ZM14.5459 10.3779C14.5427 10.3782 14.4366 10.3863 14.5303 10.4521C14.69 10.5604 14.9027 10.8329 14.9062 11.5059V18.833C14.9062 18.8708 14.907 18.9138 14.9053 18.9551L14.9033 18.9492C14.9033 19.6327 14.6866 19.9057 14.5273 20.0176C14.4322 20.0844 14.543 20.0898 14.543 20.0898L17.6641 20.0859V10.3779H14.5459ZM5.71582 7.66699C5.71582 7.66699 5.60524 7.67439 5.70215 7.74121C5.85965 7.84965 6.07617 8.12792 6.07617 8.80762V18.9609C6.0744 19.6349 5.85965 19.9082 5.70215 20.0166C5.60524 20.0834 5.71777 20.0889 5.71777 20.0889H12.75C13.4433 20.0888 13.8252 19.6447 13.8252 18.8438V17.7305H13.8213V17.377C13.8213 17.377 13.8159 17.2653 13.748 17.3604C13.6458 17.5154 13.3927 17.7181 12.7852 17.7363C12.5307 17.7386 12.242 17.7412 11.9248 17.7412H9.2207V7.6709H6.5918V7.66699H5.71582ZM24.3271 12.0098C25.6795 12.0101 26.4882 13.2094 26.4883 15.2207C26.4883 16.0505 26.1991 16.8559 25.6797 17.4854C25.1837 18.0915 24.465 18.452 23.7266 18.4521C23.3823 18.4521 22.7887 18.3748 22.2188 17.8496L22.1797 17.8135V13.7324C22.1799 13.7009 22.2102 12.0098 24.3271 12.0098ZM42.2432 12.0098C43.5959 12.0098 44.6934 13.4464 44.6934 15.2217C44.6933 16.9968 43.5958 18.4385 42.2432 18.4385C40.8907 18.4382 39.7921 16.9931 39.792 15.2217C39.792 13.4502 40.8902 12.01 42.2432 12.0098ZM16.2588 6.62793C15.4793 6.62801 14.8401 7.26823 14.8398 8.05469C14.8398 8.84135 15.4792 9.4843 16.2588 9.48438C17.0403 9.48438 17.6768 8.84319 17.6768 8.05469C17.6765 7.2664 17.0383 6.62793 16.2588 6.62793Z" fill="black"/>
</svg>
