<svg width="104" height="48" viewBox="0 0 104 48" fill="none" xmlns="http://www.w3.org/2000/svg">
<path d="M51.6953 0C74.162 9.67541e-05 76.9033 7.49607 103.39 7.49609V39.8896C76.9026 39.8897 74.1613 47.3866 51.6953 47.3867C29.2289 47.3867 26.4874 39.8896 0 39.8896V7.49609C26.4874 7.49609 29.2289 0 51.6953 0ZM40.9219 16.5215C39.235 16.5215 37.5456 17.2674 36.2803 18.5762L35.9258 18.9414V16.96H31.1436C31.1352 16.9605 30.9665 16.9723 31.1182 17.0781C31.3813 17.258 31.7295 17.7129 31.7295 18.8271V18.9795C31.7295 18.9795 31.7383 37.8354 31.7412 37.8682C31.7598 37.8756 33.4556 38.5504 36.8252 38.9521C36.8896 38.9616 37.0088 38.9382 36.8506 38.832C36.6134 38.6667 36.3066 38.2796 36.248 37.375L36.2422 31.1514L36.5996 31.5342C37.669 32.6951 39.0622 33.2617 40.8574 33.2617C43.4958 33.2617 45.1417 31.8204 46.0557 30.6084L46.0547 30.6094C47.2289 29.0705 47.9033 26.9952 47.9033 24.9199C47.9033 22.6031 47.2061 20.4772 45.9531 18.9385C44.6762 17.3786 42.89 16.5215 40.9219 16.5215ZM50.7285 14.2803V16.9922H49.0352L49.0029 20.0137H50.7275V27.5869C50.7275 31.03 52.713 33.2627 55.7969 33.2627H55.7979C59.692 33.2625 60.0697 29.9195 60.0957 28.9404C60.1022 28.7811 60.0203 28.761 59.8975 28.873C59.4701 29.253 58.3977 30.0635 57.0947 30.0635C55.5482 30.0635 55.2383 28.9968 55.2383 27.2754V20.0137H56.7109C59.5172 20.0136 59.4839 16.9922 59.4834 16.957H55.2383V12.4668L50.7285 14.2803ZM69.0273 16.5195C64.4505 16.5196 60.7287 20.2606 60.7285 24.8711C60.7285 29.4817 64.4504 33.2294 69.0273 33.2295C73.5986 33.2295 77.3213 29.476 77.3213 24.8711C77.3211 20.2664 73.6042 16.5195 69.0273 16.5195ZM88.4326 16.5205C86.0689 16.5205 84.4964 17.6821 83.5918 18.6582L83.2344 19.041V16.957H78.4463C78.4463 16.957 78.265 16.9682 78.4199 17.0771C78.6867 17.2569 79.0352 17.7088 79.0352 18.8232L79.041 18.8115C79.0439 18.8675 79.0439 18.9264 79.0439 18.9766V24.042H79.041V32.8301L84.1133 32.8271C84.1133 32.8271 84.2864 32.8174 84.1338 32.709C83.9082 32.559 83.6295 32.2137 83.5449 31.4443V24.7998C83.5449 21.9347 85.4492 20.0146 87.2236 20.0146C88.4889 20.0147 88.9834 20.7573 88.9834 22.6768V30.7725C88.9835 30.8136 88.9922 30.8455 88.9951 30.8867V32.8301L94.0518 32.833C94.0518 32.833 94.2278 32.8233 94.0781 32.7148C93.8554 32.5613 93.5797 32.2226 93.4951 31.4707V22.2402C93.4951 20.3622 93.0595 18.9228 92.2041 17.9619C91.3553 17.004 90.084 16.5205 88.4326 16.5205ZM23.7686 16.958C23.7649 16.9583 23.5887 16.9712 23.7422 17.0791C24.0032 17.256 24.3526 17.7009 24.3584 18.8008V30.7725C24.3584 30.8342 24.3583 30.9051 24.3555 30.9727L24.3525 30.9639C24.3525 32.081 23.9976 32.5263 23.7373 32.709C23.5821 32.8181 23.7637 32.8271 23.7637 32.8271L28.8652 32.8213H28.8643V16.958H23.7686ZM9.33984 12.5283C9.3377 12.5285 9.1597 12.5402 9.31641 12.6484C9.57382 12.8253 9.92871 13.2801 9.92871 14.3916V30.9834C9.92577 32.0853 9.5738 32.5311 9.31641 32.708C9.15876 32.8169 9.34277 32.8252 9.34277 32.8252H20.834C21.9668 32.8251 22.5907 32.1005 22.5908 30.792L22.5898 30.791V28.9717H22.584V28.3936C22.5835 28.3847 22.5723 28.2157 22.4639 28.3682C22.2966 28.6214 21.8837 28.9506 20.8916 28.9805C20.476 28.9841 20.0046 28.9902 19.4863 28.9902H15.0674V12.5342H10.7715V12.5283H9.33984ZM39.751 19.624C41.9611 19.6243 43.2822 21.5842 43.2822 24.8711C43.2822 26.2272 42.8098 27.5427 41.9609 28.5713C41.1504 29.5619 39.9763 30.1513 38.7695 30.1514C38.207 30.1514 37.2379 30.0251 36.3066 29.167L36.2422 29.1074V22.4395C36.2422 22.4096 36.2781 19.624 39.751 19.624ZM69.0273 19.624C71.2377 19.6241 73.0303 21.9713 73.0303 24.8721C73.0302 27.7728 71.2377 30.1279 69.0273 30.1279C66.8169 30.1279 65.0215 27.767 65.0215 24.8721C65.0215 21.9771 66.8162 19.624 69.0273 19.624ZM26.5674 10.8301C25.2934 10.8302 24.248 11.8767 24.248 13.1621C24.2481 14.4475 25.2935 15.4969 26.5674 15.4971C27.8443 15.4971 28.8847 14.4505 28.8848 13.1621C28.8848 11.8737 27.8414 10.8301 26.5674 10.8301Z" fill="white"/>
</svg>
