<svg width="151" height="29" viewBox="0 0 151 29" fill="none" xmlns="http://www.w3.org/2000/svg">
<path d="M142.36 21.9924C142.322 22.3193 142.203 23.175 141.138 23.2889H131.78C130.715 23.1787 130.519 22.3193 130.48 21.9924V6.84967C130.519 6.5228 130.666 5.82865 131.734 5.71847H141.145C142.21 5.82865 142.322 6.5228 142.364 6.84967V21.9961L142.36 21.9924ZM145.601 0.0110182H127.239C124.479 0.246074 122.149 1.7115 121.841 4.99126V23.7406C122.152 27.0204 124.482 28.7613 127.239 28.9927H145.601C148.362 28.7576 150.692 27.0204 151 23.7406V4.99126C150.688 1.7115 148.358 0.242401 145.601 0.0110182ZM71.2888 5.71479H63.0802V0.0110182H88.1406V5.71847H79.9319V29H71.2923V5.71479H71.2888ZM60.4876 5.71479V0.0110182H38.0198V28.9963L60.7854 28.989L60.7924 23.2889H46.6804V17.0819H60.4841V11.3892H46.6804V5.71479H60.4841H60.4876ZM110.605 10.2102C110.605 10.8383 110.458 11.3892 109.382 11.3892H99.3727V5.7001H109.396C110.615 5.7001 110.605 6.53749 110.605 7.05902V10.2139V10.2102ZM112.998 17.7283C115.692 17.5006 118.379 15.5798 118.379 12.4212V5.26304C118.067 1.99797 115.727 0.231383 112.956 0H90.7261V28.9963H99.3657V17.7283H102.806L108.422 28.9963H118.358L111.67 17.7283H112.991H112.998ZM20.1345 28.9963L25.9222 10.7905V28.9963H34.5618V0.0110182H22.8952L17.2792 14.5037L11.6666 0.0110182H0V28.9963H8.63958V10.7869L14.4729 28.9927H20.1345" fill="black"/>
</svg>
