<svg width="109" height="20" viewBox="0 0 109 20" fill="none" xmlns="http://www.w3.org/2000/svg">
<path d="M102.763 15.1672C102.736 15.3926 102.65 15.9828 101.881 16.0613H95.1259C94.3571 15.9853 94.2155 15.3926 94.1876 15.1672V4.72391C94.2155 4.49848 94.3217 4.01976 95.093 3.94377H101.886C102.655 4.01976 102.736 4.49848 102.766 4.72391V15.1697L102.763 15.1672ZM105.103 0.00759878H91.8483C89.8555 0.169706 88.1737 1.18034 87.9511 3.44225V16.3728C88.1762 18.6348 89.858 19.8354 91.8483 19.9949H105.103C107.096 19.8328 108.777 18.6348 109 16.3728V3.44225C108.775 1.18034 107.093 0.167173 105.103 0.00759878ZM51.4601 3.94124H45.5347V0.00759878H63.6246V3.94377H57.6992V20H51.4627V3.94124H51.4601ZM43.6632 3.94124V0.00759878H27.4447V19.9975L43.8782 19.9924L43.8833 16.0613H33.6964V11.7806H43.6607V7.85461H33.6964V3.94124H43.6607H43.6632ZM79.8406 7.04154C79.8406 7.47467 79.7344 7.85461 78.958 7.85461H71.7326V3.9311H78.9681C79.8482 3.9311 79.8406 4.50861 79.8406 4.86829V7.04407V7.04154ZM81.5679 12.2264C83.5127 12.0694 85.4525 10.7447 85.4525 8.56636V3.62969C85.2274 1.37791 83.538 0.159574 81.5376 0H65.491V19.9975H71.7276V12.2264H74.211L78.265 19.9975H85.4373L80.6094 12.2264H81.5629H81.5679ZM14.5342 19.9975L18.7121 7.44174V19.9975H24.9486V0.00759878H16.527L12.473 10.0025L8.42158 0.00759878H0V19.9975H6.23652V7.43921L10.4473 19.9949H14.5342" fill="white"/>
</svg>
