<svg width="166" height="33" viewBox="0 0 166 33" fill="none" xmlns="http://www.w3.org/2000/svg">
<path d="M9.16158 11.5485C5.28942 10.9554 4.99886 9.98168 4.99886 8.55836C4.99886 6.90413 6.26192 5.91783 8.37296 5.91783C10.6974 5.91783 11.8419 6.84795 12.1977 9.02033L12.2392 9.27623H16.4553L16.4197 8.93294C15.9869 4.49455 13.2057 2.15364 8.36705 2.15364C3.89591 2.15364 0.646353 4.99394 0.646353 8.90174C0.646353 13.6896 3.75359 15.1129 8.41442 15.7746C12.0257 16.3989 12.6128 17.2104 12.6128 18.9208C12.6128 20.7997 11.1125 22.067 8.88294 22.067C5.37837 22.067 4.67271 20.2068 4.43552 18.1967L4.40587 17.922H0L0.0237194 18.2591C0.266843 21.7174 1.99836 25.8312 8.88294 25.8312C13.6031 25.8312 17.0246 22.7786 17.0246 18.5775C17.0246 13.6709 14.0182 12.2477 9.16158 11.5485Z" fill="white"/>
<path d="M26.1267 8.12142C21.3828 8.12142 18.074 11.7358 18.074 16.9107V17.1604C18.074 22.3417 21.371 25.825 26.275 25.825C30.4911 25.825 33.207 23.7837 33.7288 20.2193L33.7821 19.8572H29.6965L29.655 20.1132C29.4 21.63 28.3208 22.3666 26.364 22.3666C23.3634 22.3666 22.5273 20.1319 22.3791 18.1218H33.7881V16.711C33.7881 12.5536 31.7719 8.10893 26.1267 8.10893V8.12142ZM22.4799 14.9693C22.9009 12.7657 24.2114 11.511 26.1267 11.511C28.22 11.511 29.3526 12.6409 29.5957 14.9693H22.4799Z" fill="white"/>
<path d="M46.6203 19.0518C46.4068 21.4365 44.6931 22.2855 43.1572 22.2855C40.5956 22.2855 39.125 20.4065 39.125 17.1354V16.8857C39.125 13.7957 40.6727 11.7982 43.0683 11.7982C44.9956 11.7982 46.0984 12.7533 46.3534 14.6385L46.3891 14.9069H50.4629L50.4331 14.5636C50.0537 10.4748 47.3497 8.12762 43.0091 8.12762C38.277 8.12762 34.8377 11.8356 34.8377 16.9481V17.1978C34.8377 22.3604 38.1228 25.8312 43.0091 25.8312C47.2844 25.8312 50.2316 23.1906 50.5221 19.1018L50.5459 18.7647H46.6441L46.6203 19.0456V19.0518Z" fill="white"/>
<path d="M62.3464 18.5462C62.3464 21.2117 60.5437 22.1606 59.0019 22.1606C57.0806 22.1606 56.2267 21.1431 56.2267 18.8583V8.46468H52.0225V19.2953C52.0225 23.4465 54.086 25.8249 57.6914 25.8249C59.6601 25.8249 61.3086 25.0571 62.3464 23.6838V25.5128H66.5506V8.46468H62.3464V18.5462Z" fill="white"/>
<path d="M77.7759 8.12142C75.7775 8.12142 74.0756 8.92044 73.032 10.3125V8.47097H68.8277V25.5191H73.032V15.5374C73.032 12.8719 74.7753 11.9231 76.406 11.9231C78.3748 11.9231 79.2108 12.9093 79.2108 15.2253V25.5253H83.4154V14.8819C83.4154 10.531 81.4105 8.13391 77.7818 8.13391L77.7759 8.12142Z" fill="white"/>
<path d="M94.522 8.12142C92.5235 8.12142 90.8214 8.92044 89.7777 10.3125V8.47097H85.5734V25.5191H89.7777V15.5374C89.7777 12.8719 91.5211 11.9231 93.1519 11.9231C95.1204 11.9231 95.9569 12.9093 95.9569 15.2253V25.5253H100.161V14.8819C100.161 10.531 98.157 8.13391 94.5277 8.13391L94.522 8.12142Z" fill="white"/>
<path d="M106.612 8.46468H102.408V25.5128H106.612V8.46468Z" fill="white"/>
<path d="M104.466 1.39831C103.097 1.39831 102.023 2.50321 102.023 3.90776C102.023 5.31231 103.097 6.386 104.466 6.386C105.836 6.386 106.909 5.29982 106.909 3.90776C106.909 2.5157 105.836 1.39831 104.466 1.39831Z" fill="white"/>
<path d="M120.886 15.6435L127.112 8.46468H121.911L120.667 9.93169C119.35 11.486 119.35 13.827 120.667 15.3813L120.886 15.6373V15.6435Z" fill="white"/>
<path d="M120.838 17.4101L120.607 17.6973C119.291 19.3702 119.291 21.7986 120.607 23.4715L122.214 25.5128H127.189L120.838 17.4101Z" fill="white"/>
<path d="M113.379 8.46468H108.202L114.683 16.5112L108.119 25.5128H113.07L119.676 16.4925L113.379 8.46468Z" fill="white"/>
<path fill-rule="evenodd" clip-rule="evenodd" d="M154.852 3.55194H141.812L139.861 0H156.797L154.852 3.55194ZM144.107 8.68325H152.065L149.313 13.6959H141.362L144.107 8.68325ZM147.22 19.2953L144.599 24.0771H152.551L155.172 19.2953H147.22ZM141.812 29.1584H154.852L156.797 32.7103H139.861L141.812 29.1584ZM162.104 16.8233L155.582 28.7151L157.532 32.2671L166 16.8233H162.104ZM162.039 15.9369L160.8 13.6959H150.292L157.532 0.493156L166 15.9369H162.039ZM134.56 15.9369L141.077 4.05134V4.0451L139.132 0.493156L130.664 15.9369H134.56ZM134.62 16.8233L136.037 19.2953H146.242L139.132 32.2671L130.664 16.8233H134.62Z" fill="white"/>
</svg>
