<svg width="178" height="29" viewBox="0 0 178 29" fill="none" xmlns="http://www.w3.org/2000/svg">
<path d="M70.3442 25.3042C67.1539 25.3042 64.5387 24.3128 62.4917 22.3233C60.4447 20.3405 59.4178 17.7373 59.4178 14.5203C59.4178 11.3033 60.431 8.70005 62.4643 6.71726C64.4908 4.73447 67.0581 3.73633 70.1731 3.73633C71.734 3.73633 73.2128 4.04656 74.5957 4.66028C75.9786 5.274 77.1699 6.11703 78.1557 7.18935L76.6975 8.91586C76.4784 9.19238 76.2593 9.334 76.0471 9.334C75.8486 9.334 75.5062 9.1654 75.0065 8.82819C73.3839 7.75586 71.7956 7.22307 70.2552 7.22307C68.2767 7.22307 66.6199 7.89075 65.2781 9.23284C63.9431 10.5749 63.2722 12.3352 63.2722 14.5203C63.2722 16.7054 63.9431 18.4994 65.2918 19.8549C66.6405 21.2038 68.352 21.8782 70.4264 21.8782C72.3639 21.8782 73.9179 21.4196 75.0886 20.5091V16.5773H70.0978V14.2235C70.0978 13.5694 70.4264 13.2389 71.0768 13.2389H78.5322V22.1142C77.6012 23.0652 76.4099 23.834 74.9654 24.4207C73.5209 25.0075 71.9736 25.2975 70.3306 25.2975L70.3442 25.3042Z" fill="black"/>
<path d="M95.5586 24.9469H82.106V5.14594C82.106 4.45128 82.4551 4.10059 83.1466 4.10059H85.9398V21.4331H96.5993V23.9015C96.5993 24.5962 96.2501 24.9469 95.5586 24.9469Z" fill="black"/>
<path d="M121.588 24.9469V5.14594C121.588 4.45128 121.937 4.10059 122.628 4.10059H131.624C133.562 4.10059 135.116 4.62663 136.286 5.67873C137.457 6.73082 138.039 8.07291 138.039 9.69826C138.039 10.6897 137.82 11.5799 137.368 12.3622C136.916 13.1445 136.362 13.7448 135.691 14.1629C136.54 14.6013 137.279 15.2622 137.902 16.1592C138.525 17.0494 138.84 18.0543 138.84 19.1671C138.84 20.8734 138.279 22.2627 137.149 23.335C136.019 24.4073 134.424 24.9401 132.37 24.9401H121.588V24.9469ZM131.152 7.43896H125.333V12.922H131.152C132.083 12.922 132.822 12.6724 133.377 12.1599C133.931 11.6541 134.205 10.9864 134.205 10.1501C134.205 9.31384 133.931 8.67989 133.39 8.18756C132.843 7.68849 132.097 7.4457 131.145 7.4457L131.152 7.43896ZM131.624 15.9231H125.326V21.6085H131.624C132.774 21.6085 133.623 21.3455 134.178 20.8194C134.732 20.2934 135.006 19.6055 135.006 18.749C135.006 17.8924 134.712 17.2315 134.13 16.7122C133.548 16.1862 132.713 15.9231 131.617 15.9231H131.624Z" fill="black"/>
<path d="M142.989 24.9469H139.778L148.123 4.90314C148.322 4.37035 148.719 4.10059 149.308 4.10059H152.573L161.275 24.9469H158.071C157.496 24.9469 157.099 24.6704 156.88 24.1106L155.545 20.8936H145.508L144.173 24.1106C143.954 24.6636 143.557 24.9469 142.982 24.9469H142.989ZM146.761 17.5957H154.305L150.533 8.36291L146.761 17.5957Z" fill="black"/>
<path d="M176.959 24.9469H163.507V5.14594C163.507 4.45128 163.856 4.10059 164.547 4.10059H167.341V21.4331H178V23.9015C178 24.5962 177.651 24.9469 176.959 24.9469Z" fill="black"/>
<path fill-rule="evenodd" clip-rule="evenodd" d="M30.8077 4.03311H21.5586C20.7576 4.03986 20.114 4.6873 20.1072 5.48986V24.9603H23.674C24.7352 24.9603 25.5978 24.0903 25.6046 23.0247V19.7943H30.0409L33.6352 24.9333H39.605L35.2988 18.8096L35.7986 18.4926C37.8045 17.218 39.1806 14.5743 39.1806 11.8699C39.1806 6.49474 34.8196 4.02637 30.8077 4.02637V4.03311ZM30.8556 14.7361H25.5704V9.0373H30.8556C32.7041 9.0373 33.6831 10.4671 33.6831 11.8699C33.6831 12.9826 32.9163 14.7294 30.8556 14.7294V14.7361Z" fill="black"/>
<path fill-rule="evenodd" clip-rule="evenodd" d="M6.68185 24.9669H10.2487C11.3098 24.9669 12.1725 24.0969 12.1793 23.0313V9.11808H17.2249C18.1218 9.11808 18.8612 8.37621 18.8612 7.47249V4.03296H1.05431C0.472385 4.03296 0 4.50505 0 5.0918V9.0911H6.68185V24.9669Z" fill="black"/>
<path fill-rule="evenodd" clip-rule="evenodd" d="M46.547 24.9671H50.1139C51.175 24.9671 52.0376 24.0971 52.0445 23.0315V9.09125H57.0901C57.9869 9.09125 58.7263 8.34939 58.7263 7.44567V4.02637H40.9195C40.3376 4.02637 39.8652 4.5052 39.8652 5.0852V9.08451H46.547V24.9671Z" fill="black"/>
<path fill-rule="evenodd" clip-rule="evenodd" d="M30.8077 4.03311H21.5586C20.7576 4.03986 20.114 4.6873 20.1072 5.48986V24.9603H23.674C24.7352 24.9603 25.5978 24.0903 25.6046 23.0247V19.7943H30.0409L33.6352 24.9333H39.605L35.2988 18.8096L35.7986 18.4926C37.8045 17.218 39.1806 14.5743 39.1806 11.8699C39.1806 6.49474 34.8196 4.02637 30.8077 4.02637V4.03311ZM30.8556 14.7361H25.5704V9.0373H30.8556C32.7041 9.0373 33.6831 10.4671 33.6831 11.8699C33.6831 12.9826 32.9163 14.7294 30.8556 14.7294V14.7361Z" fill="black"/>
<path fill-rule="evenodd" clip-rule="evenodd" d="M6.68185 24.9669H10.2487C11.3098 24.9669 12.1725 24.0969 12.1793 23.0313V9.11808H17.2249C18.1218 9.11808 18.8612 8.37621 18.8612 7.47249V4.03296H1.05431C0.472385 4.03296 0 4.50505 0 5.0918V9.0911H6.68185V24.9669Z" fill="black"/>
<path fill-rule="evenodd" clip-rule="evenodd" d="M46.547 24.9671H50.1139C51.175 24.9671 52.0376 24.0971 52.0445 23.0315V9.09125H57.0901C57.9869 9.09125 58.7263 8.34939 58.7263 7.44567V4.02637H40.9195C40.3376 4.02637 39.8652 4.5052 39.8652 5.0852V9.08451H46.547V24.9671Z" fill="black"/>
<path d="M21.8187 24.9669H20.1072V4.03296L30.8077 4.03311C32.93 4.03311 35.0044 4.72761 36.5037 5.93482C38.2563 7.3511 39.1874 9.40808 39.1874 11.8697C39.1874 14.5471 37.8319 17.2111 35.8123 18.4925L35.3056 18.8095L39.6119 24.9332H33.642L30.0478 19.7941H25.6115V23.0178C25.6115 24.0902 24.742 24.9534 23.6877 24.9602H21.8324L21.8187 24.9669ZM25.5704 14.7361H30.8556C32.0126 14.7361 32.6836 14.183 33.0396 13.7244C33.4435 13.2118 33.6831 12.5171 33.6831 11.8764C33.6831 10.7367 32.93 9.04389 30.8556 9.04389H25.5704V14.7427V14.7361Z" fill="black"/>
<path d="M8.39338 24.9669H6.68185V9.0911H0V4.03296H18.868V9.11808H12.1862V23.0246C12.1588 24.1239 11.3167 24.9534 10.2624 24.9602H8.40708L8.39338 24.9669Z" fill="black"/>
<path d="M46.547 24.9671V9.09793H39.8652V4.03979H58.7332V9.09793H52.0513V23.0314C52.0239 24.1307 51.1819 24.9603 50.1276 24.967L46.547 24.9671Z" fill="black"/>
<path d="M107.574 29C99.4541 29 92.8544 22.4986 92.8544 14.5C92.8544 6.5014 99.4609 0 107.574 0C115.686 0 122.293 6.50814 122.293 14.5C122.293 22.4919 115.693 29 107.574 29ZM107.574 4.04651C101.72 4.04651 96.9621 8.73372 96.9621 14.5C96.9621 20.2663 101.72 24.9535 107.574 24.9535C113.427 24.9535 118.185 20.2663 118.185 14.5C118.185 8.73372 113.427 4.04651 107.574 4.04651Z" fill="black"/>
</svg>
